<svg id="Layer_1" data-name="Layer 1" xmlns="http://www.w3.org/2000/svg" viewBox="0 0 122.88 96.65"><title>sound</title><path d="M11,22.84H36.47L58.17,1A3.44,3.44,0,0,1,63,1a3.39,3.39,0,0,1,1,2.44h0V93.2a3.46,3.46,0,0,1-5.93,2.41L36.65,77.49H11a11,11,0,0,1-11-11V33.83a11,11,0,0,1,11-11Zm65.12,15a3.22,3.22,0,1,1,6.1-2,43.3,43.3,0,0,1,1.56,13.27c-.09,4.76-.78,9.44-2.13,12.21a3.23,3.23,0,1,1-5.8-2.83c.93-1.92,1.43-5.59,1.5-9.48a37.13,37.13,0,0,0-1.23-11.12Zm16.64-12a3.23,3.23,0,0,1,6-2.48c3,7.18,4.61,16.23,4.75,25.22s-1.17,17.72-4,24.77a3.22,3.22,0,1,1-6-2.4C96,64.64,97.15,56.66,97,48.6s-1.58-16.36-4.28-22.81Zm16.09-10.23a3.22,3.22,0,1,1,5.8-2.8,86.65,86.65,0,0,1,8.24,36.44c.09,12.22-2.37,24.39-7.73,34.77a3.22,3.22,0,0,1-5.73-3c4.88-9.43,7.11-20.56,7-31.77a80,80,0,0,0-7.6-33.69ZM37.89,29.74H11A4.11,4.11,0,0,0,6.9,33.83V66.51A4.11,4.11,0,0,0,11,70.6h26.9s2,.69,2.21.83L57.16,85.8v-74L40.52,28.53a3.46,3.46,0,0,1-2.63,1.21Z"/></svg>